<svg width="208" height="30" viewBox="0 0 208 30" fill="none" xmlns="http://www.w3.org/2000/svg">
<path d="M171.44 15.9872C170.662 15.9872 170.122 15.6272 169.106 14.2509L164.315 7.6655C163.955 7.18931 163.479 6.94541 162.88 6.94541H157.253C156.237 6.94541 155.999 7.60163 156.597 8.37979L163.781 17.6597C164.199 18.1998 164.199 18.7979 163.722 19.338L156.115 28.5017C155.459 29.2799 155.755 30 156.771 30H162.398C162.875 30 163.357 29.878 163.833 29.2799L169.936 21.7364C170.476 21.0801 170.894 20.6562 171.492 20.6562C171.969 20.6562 172.509 20.8943 173.171 21.7364L179.158 29.2799C179.576 29.82 180.058 30 180.592 30H186.161C187.178 30 187.48 29.2218 186.818 28.5017L178.676 19.3438C178.2 18.8037 178.2 18.2636 178.676 17.6655L186.22 8.44948C186.94 7.61324 186.58 6.95122 185.563 6.95122H179.994C179.518 6.95122 178.978 7.07317 178.56 7.67131L173.769 14.2567C172.758 15.6272 172.218 15.9872 171.44 15.9872ZM95.2962 16.1092V13.9547C95.2962 12.7584 95.8943 12.1603 97.0906 12.1603H108.943C110.139 12.1603 110.738 12.7584 110.738 13.9547V16.1092H95.2962ZM88.2927 22.2125C88.2927 27.4216 90.8653 29.9942 96.0743 29.9942H115.65C116.609 29.9942 117.149 29.4541 117.149 28.4959V25.8595C117.149 24.9013 116.609 24.3612 115.65 24.3612H97.0906C95.8943 24.3612 95.2962 23.705 95.2962 22.3868V20.4704H115.348C116.963 20.4704 117.741 19.6922 117.741 18.0778V13.5308C117.741 9.09988 115.587 6.94541 111.156 6.94541H94.8722C90.4414 6.94541 88.2869 9.09988 88.2869 13.5308V22.2125H88.2927ZM193.293 1.20209V6.95122H189.82C189.042 6.95122 188.624 7.36934 188.624 8.1475V11.5621C188.624 12.3403 189.042 12.7584 189.82 12.7584H193.293V22.2184C193.293 27.4274 195.865 30 201.074 30H206.76C207.538 30 207.956 29.5819 207.956 28.8037V25.3891C207.956 24.6109 207.538 24.1928 206.76 24.1928H202.689C201.132 24.1928 200.296 23.3566 200.296 21.8002V12.7526H206.521C207.3 12.7526 207.718 12.3345 207.718 11.5563V8.1417C207.718 7.36353 207.3 6.94541 206.521 6.94541H200.296V1.19628C200.296 0.418119 199.878 0 199.1 0H194.489C193.711 0.0058072 193.293 0.423927 193.293 1.20209ZM121.876 15.331V28.4379C121.876 29.3961 122.416 29.9361 123.374 29.9361H127.387C128.345 29.9361 128.885 29.3961 128.885 28.4379V15.7491C128.885 13.7166 129.843 12.7584 131.876 12.7584H143.85C145.883 12.7584 146.841 13.7166 146.841 15.7491V28.4379C146.841 29.3961 147.381 29.9361 148.339 29.9361H152.352C153.31 29.9361 153.85 29.3961 153.85 28.4379V15.331C153.85 9.70383 151.098 6.95122 145.47 6.95122H130.267C124.628 6.95122 121.876 9.70383 121.876 15.331ZM84.3438 24.0708V21.6783C84.3438 17.7875 82.1312 15.8711 78.3566 15.8711H63.7515C62.9152 15.8711 62.4971 15.453 62.4971 14.5528V13.5947C62.4971 12.6365 62.9152 12.3403 63.7515 12.3403H82.4855C83.4437 12.3403 83.9837 11.8002 83.9837 10.842V8.44948C83.9837 7.49129 83.4437 6.95122 82.4855 6.95122H61.475C57.4623 6.95122 55.4878 8.98374 55.4878 13.1185V14.3148C55.4878 18.4437 57.4623 20.482 61.475 20.482H76.0801C76.9164 20.482 77.3345 20.9001 77.3345 21.7364V23.1127C77.3345 23.9489 76.9164 24.367 76.0801 24.367H56.9222C55.964 24.367 55.4878 24.8432 55.4878 25.8653V28.5017C55.4878 29.518 56.0279 30 56.9861 30H78.3566C82.1254 29.9942 84.3438 28.0197 84.3438 24.0708ZM51.7189 22.2125V14.7329C51.7189 9.52381 49.1463 6.95122 43.9373 6.95122H35.6156C34.6574 6.95122 34.1173 7.49129 34.1173 8.44948V11.2602C34.1173 12.2184 34.6574 12.7584 35.6156 12.7584H42.3229C43.9373 12.7584 44.7155 13.5366 44.7155 15.151V21.7944C44.7155 23.4088 43.9373 24.187 42.3229 24.187H29.3902C27.7758 24.187 26.9977 23.4088 26.9977 21.7944V18.1417C26.9977 17.1835 26.4576 16.6434 25.4994 16.6434H21.4866C20.5285 16.6434 19.9884 17.1835 19.9884 18.1417V22.2125C19.9884 27.4216 22.561 29.9942 27.77 29.9942H43.9315C49.1463 29.9942 51.7189 27.4216 51.7189 22.2125ZM0 15.331V28.5017C0 29.4599 0.540071 30 1.49826 30H5.51103C6.46922 30 7.00929 29.4599 7.00929 28.5017V15.7491C7.00929 13.7166 8.02555 12.7584 10 12.7584H28.4379C29.3961 12.7584 29.9361 12.2184 29.9361 11.2602V8.44948C29.9361 7.49129 29.3961 6.95122 28.4379 6.95122H8.37979C2.75261 6.95122 0 9.70383 0 15.331Z" fill="#50DCE1"/>
</svg>
